# xmcd
#
# Track frame offsets: 
#        150
#        18795
#        43809
#        62325
#        79750
#        96028
#        115157
#        135111
#        155590
#        175362
#        195894
#        220544
#
# Disc length: 3181 seconds
#
# Revision: 0
# Processed by: cddbd v1.5.2PL0 Copyright (c) Steve Scherf et al.
# Submitted via: ExactAudioCopy v1.0b4
#
DISCID=890c6b0c
DTITLE=Malted Milk and Toni Green - Milk and Green
DYEAR=2014
DGENRE=Blues, Soul
TTITLE0=Just Call Me
TTITLE1=I'd Really Like To Know
TTITLE2=Hold Back This Feeling
TTITLE3=The Weather Is Still Fine
TTITLE4=Slipped, Tripped And Fell In Love
TTITLE5=Wake Up To Your Love
TTITLE6=I Can Do Bad All By Myself
TTITLE7=Deep Inside
TTITLE8=As Long As I Have You
TTITLE9=That Wiggle
TTITLE10=Just Ain't Working Out
TTITLE11=Party Girl
EXTD=
EXTT0=
EXTT1=
EXTT2=
EXTT3=
EXTT4=
EXTT5=
EXTT6=
EXTT7=
EXTT8=
EXTT9=
EXTT10=
EXTT11=
PLAYORDER=
